<?xml version="1.0" encoding="UTF-8" standalone="no"?>
<!-- Created with Inkscape (http://www.inkscape.org/) -->

<svg
   width="111.12983mm"
   height="53.688778mm"
   viewBox="0 0 111.12983 53.688778"
   version="1.1"
   id="svg1"
   inkscape:version="1.3.2 (091e20e, 2023-11-25, custom)"
   sodipodi:docname="CircleButton.svg"
   xmlns:inkscape="http://www.inkscape.org/namespaces/inkscape"
   xmlns:sodipodi="http://sodipodi.sourceforge.net/DTD/sodipodi-0.dtd"
   xmlns="http://www.w3.org/2000/svg"
   xmlns:svg="http://www.w3.org/2000/svg">
  <sodipodi:namedview
     id="namedview1"
     pagecolor="#ffffff"
     bordercolor="#000000"
     borderopacity="0.25"
     inkscape:showpageshadow="2"
     inkscape:pageopacity="0.0"
     inkscape:pagecheckerboard="0"
     inkscape:deskcolor="#d1d1d1"
     inkscape:document-units="mm"
     inkscape:zoom="1.0520974"
     inkscape:cx="382.56916"
     inkscape:cy="538.44827"
     inkscape:window-width="1648"
     inkscape:window-height="1237"
     inkscape:window-x="1542"
     inkscape:window-y="801"
     inkscape:window-maximized="0"
     inkscape:current-layer="g13" />
  <defs
     id="defs1">
    <inkscape:path-effect
       effect="bspline"
       id="path-effect17"
       is_visible="true"
       lpeversion="1.3"
       weight="33.333333"
       steps="2"
       helper_size="0"
       apply_no_weight="true"
       apply_with_weight="true"
       only_selected="false"
       uniform="false" />
    <inkscape:path-effect
       effect="offset"
       id="path-effect13"
       is_visible="true"
       lpeversion="1.2"
       linejoin_type="miter"
       unit="mm"
       offset="5.5"
       miter_limit="4"
       attempt_force_join="false"
       update_on_knot_move="true" />
    <filter
       inkscape:collect="always"
       style="color-interpolation-filters:sRGB"
       id="filter16"
       x="-0.021884476"
       y="-0.047523886"
       width="1.043769"
       height="1.0950478">
      <feGaussianBlur
         inkscape:collect="always"
         stdDeviation="0.97084786"
         id="feGaussianBlur16" />
    </filter>
    <filter
       inkscape:collect="always"
       style="color-interpolation-filters:sRGB"
       id="filter17"
       x="-0.03502708"
       y="-0.11826696"
       width="1.0700542"
       height="1.2365339">
      <feGaussianBlur
         inkscape:collect="always"
         stdDeviation="0.31 0.273"
         id="feGaussianBlur17" />
    </filter>
    <filter
       inkscape:collect="always"
       style="color-interpolation-filters:sRGB"
       id="filter18"
       x="-0.026078359"
       y="-0.091613514"
       width="1.0521567"
       height="1.183227">
      <feGaussianBlur
         inkscape:collect="always"
         stdDeviation="0.97361704"
         id="feGaussianBlur18" />
    </filter>
    <filter
       inkscape:collect="always"
       style="color-interpolation-filters:sRGB"
       id="filter19"
       x="-0.027017208"
       y="-0.073177169"
       width="1.0540344"
       height="1.1463543">
      <feGaussianBlur
         inkscape:collect="always"
         stdDeviation="0.9569174"
         id="feGaussianBlur19" />
    </filter>
    <filter
       inkscape:collect="always"
       style="color-interpolation-filters:sRGB"
       id="filter20"
       x="-0.021334117"
       y="-0.056408471"
       width="1.0426682"
       height="1.1128169">
      <feGaussianBlur
         inkscape:collect="always"
         stdDeviation="0.84153076"
         id="feGaussianBlur20" />
    </filter>
    <filter
       inkscape:collect="always"
       style="color-interpolation-filters:sRGB"
       id="filter21"
       x="-0.012310136"
       y="-0.029245896"
       width="1.0246203"
       height="1.0584918">
      <feGaussianBlur
         inkscape:collect="always"
         stdDeviation="0.30460156"
         id="feGaussianBlur21" />
    </filter>
  </defs>
  <g
     inkscape:label="Layer 1"
     inkscape:groupmode="layer"
     id="layer1"
     transform="translate(-39.243768,-141.52285)">
    <g
       id="g13">
      <path
         style="fill:#cccccc;fill-opacity:1;stroke:none;stroke-width:2.465;stroke-linecap:round;stroke-miterlimit:19;stroke-dasharray:none;stroke-opacity:1"
         id="rect12"
         width="98.580856"
         height="41.494495"
         x="45.518204"
         y="147.61981"
         ry="20.747248"
         inkscape:path-effect="#path-effect13"
         sodipodi:type="rect"
         d="m 66.265625,142.11914 c -14.53833,0 -26.248047,11.70972 -26.248047,26.24805 0,14.53833 11.709717,26.24804 26.248047,26.24804 h 57.085935 c 14.53833,0 26.24805,-11.70971 26.24805,-26.24804 0,-14.53833 -11.70972,-26.24805 -26.24805,-26.24805 z" />
      <path
         id="path15"
         style="fill:#ebebeb;fill-opacity:1;stroke:none;stroke-width:2.55045;stroke-linecap:round;stroke-miterlimit:19;stroke-dasharray:none;stroke-opacity:1;filter:url(#filter16)"
         d="m 65.582334,143.85289 c -13.299427,0 -24.00853,10.9346 -24.00853,24.51408 0,13.57947 10.709103,24.51463 24.00853,24.51463 h 58.452696 c 13.29943,0 24.00853,-10.93516 24.00853,-24.51463 0,-13.57948 -10.7091,-24.51408 -24.00853,-24.51408 z m -5.29e-4,2.82296 h 58.453225 c 11.76916,0 21.24432,9.67414 21.24432,21.69112 0,12.01699 -9.47516,21.69166 -21.24432,21.69166 H 65.581805 c -11.769158,0 -21.24379,-9.67467 -21.24379,-21.69166 0,-12.01698 9.474632,-21.69112 21.24379,-21.69112 z" />
      <rect
         style="fill:#d1d1d1;fill-opacity:1;stroke:#b8b8b8;stroke-width:0.965;stroke-linecap:round;stroke-miterlimit:19;stroke-dasharray:none;stroke-opacity:1;filter:url(#filter21)"
         id="rect13"
         width="98.580856"
         height="41.494495"
         x="45.518204"
         y="147.61981"
         ry="20.747248" />
      <path
         id="rect17"
         style="fill:#dedede;stroke-width:2.1513;stroke-linecap:round;stroke-miterlimit:19;filter:url(#filter20)"
         d="m 65.376326,149.0424 h 58.864614 c 9.32665,0 17.90206,7.50846 17.90206,16.83511 0,9.32665 -8.1225,16.20973 -18.07988,17.36858 -19.61179,2.28246 -38.362229,1.98089 -56.5529,0 -7.807298,-0.85018 -20.035949,-8.04193 -20.035949,-17.36858 0,-9.32665 8.575405,-16.83511 17.902055,-16.83511 z"
         sodipodi:nodetypes="sssssss" />
      <path
         id="rect16"
         style="fill:#f8f8f8;fill-opacity:1;stroke-width:1.90111;stroke-linecap:round;stroke-miterlimit:19;filter:url(#filter18)"
         d="m 64.57612,149.22025 h 62.06544 c 6.10074,0 13.75022,8.23785 12.47842,14.70121 -0.82325,4.18379 -3.72943,6.86332 -17.81315,9.01083 -14.98745,2.28532 -34.368322,2.36843 -52.285098,0.35565 -13.30681,-1.49489 -18.524443,-5.96067 -19.235741,-9.5443 -1.35547,-6.82908 8.333743,-14.52339 14.790129,-14.52339 z"
         sodipodi:nodetypes="sssssss" />
      <path
         id="path16"
         style="fill:#cccccc;fill-opacity:0.254957;stroke:none;stroke-width:3.61622;stroke-linecap:round;stroke-miterlimit:19;stroke-dasharray:none;stroke-opacity:1;filter:url(#filter19)"
         d="m 81.621375,157.73042 a 48.901733,21.605675 0 0 0 -35.755441,6.92103 c -0.216855,1.20683 -0.347782,2.44441 -0.347782,3.71553 0,11.49397 9.25309,20.74757 20.747054,20.74757 h 57.086434 c 0.62739,0 1.24694,-0.0328 1.85984,-0.0868 a 48.901733,21.605675 0 0 0 5.31182,-9.69192 48.901733,21.605675 0 0 0 -48.901925,-21.6054 z" />
      <path
         style="mix-blend-mode:normal;fill:#ffffff;fill-opacity:1;stroke:none;stroke-width:2.465;stroke-linecap:round;stroke-miterlimit:19;stroke-dasharray:none;stroke-opacity:1;filter:url(#filter17)"
         d="m 114.63011,149.07619 c 1.31145,0.25192 4.15656,0.20746 6.5381,0.30558 2.38154,0.0981 4.29917,0.3388 5.9441,0.61295 1.64492,0.27416 3.01685,0.58173 4.14745,1.0171 1.13059,0.43537 2.01969,0.99846 2.61244,1.41339 0.59275,0.41493 0.88912,0.68165 1.18549,0.94839 -0.74992,-1.07383 -1.49983,-2.14763 -3.01878,-3.0798 -1.51895,-0.93217 -3.80676,-1.72262 -6.98095,-2.1267 -3.17418,-0.40408 -7.23435,-0.42174 -9.37569,-0.15643 -2.14134,0.26532 -2.36362,0.8136 -1.05216,1.06552 z"
         id="path17"
         inkscape:path-effect="#path-effect17"
         inkscape:original-d="m 113.09637,149.37257 c 2.84519,-0.0445 5.6903,-0.0889 8.53557,-0.13338 1.91781,0.2407 3.83544,0.48138 5.75325,0.72208 1.37204,0.30761 2.74397,0.61518 4.11601,0.92279 0.88915,0.56313 1.77825,1.12622 2.66737,1.68933 0.29638,0.26675 0.88912,0.80021 0.88912,0.80021 0,0 -1.49983,-2.14763 -2.24977,-3.22148 -2.28796,-0.7905 -4.57577,-1.58094 -6.86373,-2.37143 -4.06041,-0.0177 -8.12058,-0.0353 -12.18098,-0.053 -0.22229,0.5483 -0.44456,1.09658 -0.66684,1.64488 z"
         transform="translate(-0.51059105,0.86624002)"
         sodipodi:nodetypes="cccccccccc" />
    </g>
  </g>
</svg>
