<?xml version="1.0" encoding="UTF-8" standalone="no"?>
<!-- Created with Inkscape (http://www.inkscape.org/) -->

<svg
   width="210mm"
   height="297mm"
   viewBox="0 0 210 297"
   version="1.1"
   id="svg1"
   inkscape:version="1.3.2 (091e20e, 2023-11-25, custom)"
   sodipodi:docname="PaintSplotch3.svg"
   xml:space="preserve"
   xmlns:inkscape="http://www.inkscape.org/namespaces/inkscape"
   xmlns:sodipodi="http://sodipodi.sourceforge.net/DTD/sodipodi-0.dtd"
   xmlns="http://www.w3.org/2000/svg"
   xmlns:svg="http://www.w3.org/2000/svg"><sodipodi:namedview
     id="namedview1"
     pagecolor="#ffffff"
     bordercolor="#000000"
     borderopacity="0.25"
     inkscape:showpageshadow="2"
     inkscape:pageopacity="0.0"
     inkscape:pagecheckerboard="0"
     inkscape:deskcolor="#d1d1d1"
     inkscape:document-units="mm"
     inkscape:zoom="5.9515614"
     inkscape:cx="421.73806"
     inkscape:cy="327.72912"
     inkscape:window-width="2122"
     inkscape:window-height="1237"
     inkscape:window-x="215"
     inkscape:window-y="785"
     inkscape:window-maximized="0"
     inkscape:current-layer="layer1" /><defs
     id="defs1"><inkscape:path-effect
       effect="offset"
       id="path-effect413"
       is_visible="true"
       lpeversion="1.2"
       linejoin_type="miter"
       unit="mm"
       offset="0.3"
       miter_limit="4"
       attempt_force_join="false"
       update_on_knot_move="true" /><inkscape:path-effect
       effect="offset"
       id="path-effect411"
       is_visible="true"
       lpeversion="1.2"
       linejoin_type="miter"
       unit="mm"
       offset="0.6"
       miter_limit="4"
       attempt_force_join="false"
       update_on_knot_move="true" /><inkscape:path-effect
       effect="bspline"
       id="path-effect390"
       is_visible="true"
       lpeversion="1.3"
       weight="33.333333"
       steps="2"
       helper_size="0"
       apply_no_weight="true"
       apply_with_weight="true"
       only_selected="false"
       uniform="false" /><clipPath
       clipPathUnits="userSpaceOnUse"
       id="clipPath403"><path
         id="path404"
         style="fill:#ff0000;fill-opacity:1;fill-rule:nonzero;stroke:none;stroke-width:0.264583"
         d="m 120.07691,116.16345 -28.278897,5.3e-4 v 23.9205 h 12.194607 c 0.0429,-0.23765 0.14214,-0.49949 0.31264,-0.77773 0.0515,-0.084 0.10178,-0.17116 0.16278,-0.24856 0.0378,-0.0194 0.083,-0.23817 0.10697,-0.27957 0.0437,-0.1438 0.0884,-0.2873 0.12868,-0.43202 0.0203,-0.055 0.0241,-0.12391 0.0331,-0.17931 0.0211,-0.1329 0.0442,-0.26595 0.0754,-0.39688 0.0699,-0.24527 0.15646,-0.48703 0.30179,-0.69918 0.0807,-0.11973 0.16503,-0.23723 0.25993,-0.34623 0.0553,-0.0609 0.11358,-0.11651 0.17415,-0.16847 10e-4,-0.0643 10e-4,-0.12853 0.004,-0.19275 0.0101,-0.34554 0.0239,-0.6914 0.0682,-1.03456 0.0632,-0.42708 0.16121,-0.84876 0.3886,-1.22215 0.0394,-0.063 0.0762,-0.12702 0.11783,-0.18862 0.20804,-0.30777 0.47474,-0.57056 0.78858,-0.76946 0.0149,-0.008 0.0304,-0.016 0.0455,-0.0243 -0.8637,-1.02244 -0.4227,-1.92041 0.40463,-1.92546 0.38893,-0.002 0.86213,0.19233 1.32395,0.66404 0.17752,0.18132 0.3331,0.38153 0.47904,0.58859 0.1434,0.19787 0.25685,0.41349 0.35605,0.63614 0.0482,0.11697 0.0972,0.282 0.12712,0.3576 0.0325,0.0874 0.0298,0.0841 0.0388,0.11214 0.0129,0.0288 0.0376,0.0847 0.0124,0.0258 0.0473,0.0877 0.0157,0.0294 0.002,0.003 -0.005,-0.009 2.6e-4,10e-4 5.3e-4,10e-4 0.0219,0.0122 0.0298,0.0416 0.045,0.062 0.0544,0.0798 0.0927,0.12872 0.17105,0.25063 0.0861,0.1314 0.15102,0.27364 0.21032,0.41859 0.038,0.0913 0.0812,0.17717 0.12196,0.26716 -0.005,-0.0122 -0.0225,-0.048 -0.0155,-0.0367 0.0705,0.11452 0.1219,0.24839 0.1726,0.3726 0.0265,0.0512 0.0588,0.13507 0.0863,0.19947 0.005,0.0111 -0.008,-0.0224 -0.0134,-0.0336 0.0628,0.12408 0.0267,0.0461 0.10903,0.19792 0.0475,0.0953 0.089,0.17298 0.10387,0.19999 0.0725,0.1314 0.12377,0.27271 0.17467,0.4134 -0.008,-0.0204 -0.0177,-0.0405 -0.0228,-0.0615 -0.002,-0.0102 0.009,0.0189 0.0145,0.0279 0.0114,0.0232 0.022,0.0468 0.0336,0.0698 0.002,0.005 -0.009,-0.0195 -0.006,-0.0145 0.0169,0.0278 0.0453,0.0864 0.0605,0.11679 2.5e-4,-7.9e-4 -5.3e-4,-0.002 0,-0.003 0.0119,-0.0166 0.0221,0.0345 0.0331,0.0517 0.0153,0.0241 0.0304,0.0481 0.0455,0.0723 l 0.0155,0.0248 c 0.0147,0.0255 0.0297,0.0504 0.0444,0.076 -0.003,-0.007 -0.0154,-0.0277 -0.0114,-0.0207 0.007,0.0107 0.0139,0.0219 0.0207,0.0331 0.0535,0.0704 0.0893,0.11822 0.1328,0.17725 0.0233,0.022 0.10762,0.13817 0.11162,0.14417 0.008,0.0105 0.015,0.0214 0.0222,0.032 -0.0277,-0.0341 0.12382,0.13036 0.0837,0.0842 0.0673,0.0617 0.13539,0.12304 0.20929,0.17674 0.0858,0.0696 0.1742,0.13525 0.262,0.20205 0.027,0.0184 0.0521,0.0399 0.0791,0.0584 0.006,0.004 -0.013,-0.008 -0.016,-0.014 -0.002,-0.004 0.0144,0.007 0.0114,0.005 -0.01,-0.007 -0.0434,-0.0232 -0.0315,-0.0202 0.0239,0.007 0.0455,0.0205 0.0682,0.0305 0.0814,0.0234 0.15983,0.0688 0.24443,0.0806 0.13392,0.0332 0.26993,0.0537 0.40566,0.0775 0.11734,0.0232 0.23583,0.037 0.35502,0.046 0.14152,0.0132 0.28255,0.0348 0.42426,0.046 0.11685,0.008 0.23384,0.009 0.35089,0.0114 0.12541,0.002 0.25078,0.003 0.3762,0.003 0.13989,2.7e-4 0.27971,5.3e-4 0.41961,5.3e-4 0.14906,6e-5 0.29846,-1e-5 0.44752,0 h 0.44545 0.39068 0.45113 c 0.0685,-0.002 0.13727,0.002 0.20567,0 0.0244,-7.9e-4 -0.0342,0.002 0.047,-0.0109 0.14734,-0.0198 0.2933,-0.048 0.44028,-0.0703 0.0693,-0.0106 0.13524,-0.0316 0.20154,-0.0527 0.11333,-0.0305 0.15501,-0.0447 0.23151,-0.077 0.0846,-0.0439 0.17252,-0.0822 0.25942,-0.12196 0.0259,-0.0142 0.10104,-0.0658 0.13694,-0.0894 0.0313,-0.0249 0.0599,-0.0463 0.0884,-0.0677 0.0315,-0.0386 0.10297,-0.12034 0.12505,-0.14573 -2.6e-4,-0.003 0.014,-0.0217 0.0207,-0.0326 0.0395,-0.0607 0.0811,-0.11955 0.12041,-0.18035 0.0625,-0.0988 0.12747,-0.19605 0.19017,-0.29455 0.059,-0.0972 0.12382,-0.19079 0.18552,-0.28629 0.002,-0.004 0.007,-0.007 0.006,-0.0119 -0.001,-0.004 -0.005,0.006 -0.007,0.009 0.008,-0.0157 0.0158,-0.0316 0.0248,-0.047 0.0205,-0.0362 0.0407,-0.0728 0.063,-0.108 0.0502,-0.0789 0.0925,-0.1275 0.0579,-0.0879 0.028,-0.0672 0.11531,-0.15233 0.13281,-0.22273 0.0775,-0.14826 0.14914,-0.29963 0.22324,-0.44958 0.0461,-0.0824 0.09,-0.16598 0.13488,-0.24908 0.24766,-0.45852 0.54833,-0.74133 0.84594,-0.88057 v -3.58324 c -0.25064,-0.0611 -0.48576,-0.16152 -0.70849,-0.29042 -0.1756,-0.1028 -0.32801,-0.23646 -0.48007,-0.37001 -0.10942,-0.10669 -0.22045,-0.21146 -0.3297,-0.31832 -0.0997,-0.0888 -0.17991,-0.20197 -0.2868,-0.28267 -0.0987,-0.095 -0.20773,-0.17799 -0.31368,-0.26459 -0.10849,-0.0846 -0.2238,-0.15774 -0.33899,-0.23254 -0.0862,-0.0494 -0.1739,-0.0973 -0.2651,-0.13694 -0.1323,-0.0617 -0.26836,-0.1135 -0.40308,-0.1695 -0.17227,-0.0686 -0.34613,-0.13261 -0.51625,-0.20671 -0.1883,-0.0864 -0.375,-0.17575 -0.55965,-0.26975 -0.14529,-0.0756 -0.29367,-0.14552 -0.44132,-0.21652 -0.144,-0.058 -0.27446,-0.14331 -0.41238,-0.21291 -0.13904,-0.0769 -0.27845,-0.15278 -0.41341,-0.23668 -0.12283,-0.0767 -0.24021,-0.16065 -0.35553,-0.24805 -0.13416,-0.0986 -0.25214,-0.21508 -0.36742,-0.33434 -0.11871,-0.13861 -0.22129,-0.28894 -0.31109,-0.44752 -0.08,-0.14666 -0.14436,-0.30094 -0.20516,-0.4563 -0.0673,-0.17786 -0.11555,-0.36158 -0.15555,-0.54726 -0.0345,-0.1639 -0.0515,-0.33069 -0.0605,-0.49764 -0.0152,-0.19689 -0.004,-0.39244 0.0238,-0.58756 0.0623,-0.37507 0.26905,-0.65623 0.52504,-0.92191 0.20359,-0.18014 0.42641,-0.3461 0.67696,-0.45579 0.0719,-0.0315 0.14601,-0.0571 0.21911,-0.0858 0.37833,-0.12763 0.77757,-0.17327 1.17305,-0.21187 0.17198,-0.0174 0.34427,-0.0264 0.51677,-0.03 0.17249,-0.004 0.3452,-0.002 0.51779,10e-4 0.40861,0.0216 0.81575,0.0621 1.22112,0.1173 0.36773,0.0503 0.72699,0.13778 1.08003,0.25064 0.32684,0.11398 0.65077,0.23631 0.97049,0.36897 z m -4.79299,8.17573 c -5.3e-4,0.008 -0.002,0.0256 -0.003,0.0259 -0.002,2.7e-4 -10e-4,-0.004 -0.002,-0.006 -1e-5,0.008 2.6e-4,0.0152 5.3e-4,0.0227 5.2e-4,-0.003 0.002,-0.006 0.002,-0.009 0.002,-0.0392 0.002,-0.0413 0.002,-0.0336 z m 1.08572,0.11421 c -0.13183,0.002 -0.26336,0.008 -0.39481,0.0217 -0.21891,0.0207 -0.44023,0.0416 -0.6537,0.0956 0.001,-0.0132 -0.0127,-0.009 -0.0305,0.002 0.003,0.0335 0.004,0.0672 0.01,0.10025 0.0143,0.0727 0.0335,0.14416 0.0568,0.21446 0.0323,0.0845 0.0537,0.14131 0.0977,0.22221 -0.0718,-0.10902 0.0113,0.0143 0.0212,0.031 2.6e-4,2.6e-4 5.3e-4,0.001 10e-4,0.002 8e-5,5.3e-4 0.006,0.008 0.003,0.004 0.0131,0.0112 0.0262,0.0224 0.0393,0.0336 0.004,0.003 -0.0164,-0.0118 -0.0124,-0.009 0.0116,0.01 0.0237,0.0189 0.0357,0.0279 0.0653,0.0497 0.13836,0.10328 0.22066,0.15348 -0.0205,-0.002 -0.008,-0.001 0.0372,0.0233 0.0779,0.0427 0.15556,0.0853 0.23306,0.12867 0.1075,0.0589 0.21256,0.12168 0.32608,0.16897 0.16303,0.0788 0.32651,0.15769 0.48782,0.23979 0.14591,0.0755 0.29477,0.14446 0.44339,0.21446 0.15871,0.0703 0.32331,0.12514 0.48317,0.19275 0.15335,0.065 0.30956,0.12402 0.46044,0.19482 0.18766,0.0862 0.3713,0.18084 0.54622,0.29093 0.18036,0.11723 0.35997,0.2354 0.52813,0.37001 0.12128,0.0993 0.24583,0.19538 0.35967,0.30334 0.13569,0.11999 0.26428,0.24699 0.38964,0.37775 0.006,0.006 0.0128,0.0124 0.0191,0.0186 v -2.45565 c -0.23707,-0.12292 -0.47837,-0.23744 -0.72037,-0.35037 -0.29758,-0.12848 -0.60241,-0.23892 -0.90744,-0.3483 -0.23316,-0.0771 -0.47068,-0.13281 -0.71417,-0.16692 -0.32169,-0.0452 -0.64547,-0.0746 -0.96945,-0.0977 -0.13189,-0.002 -0.26401,-0.005 -0.39584,-0.003 z m -8.70438,9.77304 c -0.29904,0.43416 -0.40594,0.77863 0.37001,0.6966 -0.006,-0.009 -0.007,-0.01 -0.0145,-0.0207 -0.003,-0.005 0.007,0.009 0.0103,0.0129 -0.0769,-0.1049 -0.15245,-0.21122 -0.21135,-0.32763 -0.058,-0.11473 -0.11947,-0.23874 -0.15297,-0.3576 -5.3e-4,-8e-4 -8e-4,-0.002 -0.002,-0.004 z m 0.38913,0.72502 c -0.003,0.001 -0.006,0.003 -0.009,0.004 -0.0104,0.005 -0.0431,0.0291 -0.0491,0.0331 -0.0667,0.0631 -0.11858,0.13834 -0.16018,0.22014 -0.0711,0.12924 -0.0844,0.27787 -0.10336,0.42168 -0.0311,0.26394 -0.0401,0.52985 -0.0481,0.7953 -0.001,0.0406 -0.001,0.0813 -0.002,0.12196 0.20708,0.15355 0.16043,0.29989 -0.007,0.44131 -0.001,0.0959 -0.002,0.19192 -0.005,0.28784 -0.008,0.35263 -0.0458,0.70289 -0.093,1.05213 -0.0443,0.29831 -0.0968,0.59708 -0.18035,0.88729 -0.0652,0.22654 -0.10252,0.31886 -0.18191,0.53795 -0.0414,0.11135 -0.0862,0.22108 -0.1328,0.33021 h 12.99403 v -2.4629 c -0.0238,0.0366 -0.0468,0.0712 -0.0723,0.11214 -0.097,0.14738 -0.19162,0.29787 -0.30593,0.43253 -0.087,0.10074 -0.15738,0.19638 -0.2992,0.3297 -0.11656,0.0991 -0.23731,0.19337 -0.36381,0.27957 -0.13871,0.0908 -0.27857,0.1799 -0.42943,0.2496 -0.10819,0.0485 -0.21488,0.10034 -0.32297,0.14934 -0.13075,0.0536 -0.26351,0.10381 -0.4005,0.13901 -0.17344,0.055 -0.34918,0.10047 -0.52916,0.12867 -0.14298,0.0213 -0.28508,0.0491 -0.4284,0.0682 -0.19329,0.0292 -0.38733,0.0442 -0.58291,0.0372 h -0.45062 -0.39067 c -0.14868,0 -0.29782,1e-5 -0.44649,0 -0.14935,-10e-6 -0.29871,6e-5 -0.44803,0 -0.14197,-7e-5 -0.28386,-1.1e-4 -0.42582,-5.3e-4 -0.13502,0 -0.26962,-10e-4 -0.40462,-0.003 -0.16382,-0.003 -0.32803,-0.006 -0.49145,-0.0186 -0.13688,-0.0116 -0.27351,-0.0266 -0.40979,-0.0439 -0.18992,-0.0149 -0.37914,-0.037 -0.56637,-0.0729 -0.18988,-0.0345 -0.38024,-0.065 -0.56741,-0.11317 -0.19492,-0.0532 -0.38726,-0.11533 -0.57309,-0.19533 -0.19518,-0.0864 -0.38389,-0.18449 -0.54984,-0.3204 -0.0875,-0.0704 -0.18005,-0.13449 -0.26665,-0.20619 -0.10413,-0.0817 -0.20878,-0.16356 -0.30489,-0.25476 -0.11197,-0.1011 -0.21572,-0.2074 -0.31523,-0.32039 -0.0268,-0.0337 -0.0544,-0.0667 -0.0806,-0.10077 -0.0124,-0.0162 -0.024,-0.0334 -0.0357,-0.0501 -0.005,-0.007 -0.022,-0.0277 -0.015,-0.0217 -0.021,-0.0258 -0.0415,-0.0518 -0.0625,-0.0775 -0.0528,-0.0718 -0.0809,-0.11125 -0.12713,-0.17105 -0.0742,-0.10136 -0.14822,-0.20991 -0.20412,-0.30851 0.0189,0.0238 0.004,0.005 -0.0305,-0.047 -0.0501,-0.0767 -0.0959,-0.15611 -0.13746,-0.23771 0.0111,0.0148 0.004,0.005 -0.0134,-0.0274 -0.0587,-0.10968 -0.11627,-0.22002 -0.16227,-0.3359 -0.007,-0.0197 -0.0549,-0.14763 -0.0341,-0.10283 -0.045,-0.0818 -0.0868,-0.16493 -0.1292,-0.24753 0.004,0.006 0.0144,0.0256 0.0114,0.0186 -0.0369,-0.0861 -0.10385,-0.15999 -0.13694,-0.24856 -0.0514,-0.10955 -0.0975,-0.22054 -0.14625,-0.33125 -0.0236,-0.0909 -0.0938,-0.16902 -0.12351,-0.25632 -0.0451,-0.11348 -0.10908,-0.21919 -0.1509,-0.33434 -0.0172,-0.0428 -0.0213,-0.0534 -0.0227,-0.0568 -0.002,-0.004 -0.008,-0.0151 -0.004,-0.007 -0.0209,-0.0325 -0.0459,-0.0679 -0.0708,-0.10336 z m 3.30987,1.67432 c 0.002,0.002 0.003,0.005 0.005,0.007 -0.002,-0.002 -0.003,-0.005 -0.005,-0.007 z m 0.005,0.007 c 0.001,0.002 0.003,0.004 0.004,0.007 0.005,0.007 0.02,0.0277 0.015,0.0207 -0.006,-0.009 -0.0127,-0.0183 -0.0191,-0.0274 z" /></clipPath><clipPath
       clipPathUnits="userSpaceOnUse"
       id="clipPath419"><path
         id="path420"
         style="fill:#ff0000;fill-opacity:1;fill-rule:nonzero;stroke:none;stroke-width:0.264583"
         d="M 90.777404,67.421723 V 102.51002 H 129.0469 V 67.421723 Z m 26.454716,12.445754 c 0.015,0.0068 0.0308,0.01463 0.0434,0.0217 0.0145,0.0069 0.0302,0.01106 0.045,0.01707 0.0131,0.0045 0.0262,0.0088 0.0393,0.01344 2.7e-4,3.2e-5 0.001,1.25e-4 0.001,0 0.0214,0.0065 0.0424,0.01365 0.063,0.02222 0.0215,0.0091 0.0338,0.01225 0.045,0.01704 0.006,0.0021 0.0118,0.004 0.0176,0.0062 0.006,-0.0042 0.0248,-0.0087 0.0263,-0.01291 -0.0186,-0.0078 -0.0363,-0.01717 -0.0543,-0.02635 -0.002,-7.93e-4 -0.003,-0.0019 -0.005,-0.0026 -0.0127,-0.0072 -0.01,-0.0051 -0.0227,-0.01241 -0.008,-0.0043 -0.0102,-0.005 -0.006,-0.0041 0.0698,0.01664 0.0928,0.03151 0.0879,0.04548 2.6e-4,1.48e-4 7.9e-4,2.51e-4 0.001,5.29e-4 0.0189,0.0087 0.0405,0.01196 0.0594,0.02066 0.0152,0.0049 0.0264,0.0084 0.0434,0.01188 0.0206,0.0046 0.0416,0.0078 0.062,0.01344 0.0227,0.0058 0.0456,0.01111 0.0677,0.01913 0.0273,0.0074 0.0542,0.01542 0.0806,0.02532 0.0111,0.0042 0.0218,0.008 0.0331,0.01138 7.9e-4,1.48e-4 0.001,2.64e-4 0.002,5.29e-4 0.0128,0.0028 0.0256,0.0054 0.0382,0.0083 0.0166,0.0053 0.0341,0.0062 0.0512,0.0093 0.01,7.94e-4 0.0182,0.0016 0.0326,0.0011 0.0239,-1.45e-4 0.0475,-7.93e-4 0.0713,-0.0016 0.004,-1.03e-4 0.0347,-0.0026 0.0377,-0.0016 0.0239,-0.01344 0.0462,-0.02931 0.0718,-0.03927 0.0331,-0.014 0.0673,-0.02657 0.10284,-0.03307 0.0146,-0.0033 0.0288,-0.0053 0.0424,-0.01035 0.0315,-0.01312 0.0635,-0.02635 0.0961,-0.03669 0.0296,-0.01151 0.0591,-0.02254 0.0889,-0.03359 0.0153,-0.0057 0.0311,-0.01074 0.0465,-0.01601 -0.33059,0.148145 0.49045,0.214209 0.14366,0.3483 -0.0201,0.0078 -0.0408,0.01357 -0.061,0.02119 -0.028,0.01037 -0.0563,0.02117 -0.0842,0.03204 -0.0297,0.0096 -0.0585,0.02109 -0.0873,0.03307 -0.0337,0.01466 -0.0697,0.02199 -0.10542,0.02997 -0.0166,0.0021 -0.0234,0.0063 -0.0377,0.01241 -0.008,0.0053 -0.019,0.01236 -0.0289,0.0181 -0.0165,0.01008 -0.0354,0.01392 -0.0532,0.02066 0.004,0.02846 0.0357,0.0428 0.1142,0.03152 -0.0123,0.0028 -0.0253,0.0053 -0.0377,0.0072 -0.007,0.0011 -0.0116,0.0019 -0.014,0.0021 l 5.3e-4,5.29e-4 c -0.0239,0.006 -0.0478,0.0093 -0.0723,0.01188 -0.0216,0.0021 -0.0434,0.0026 -0.0651,0.0031 -0.0217,5.29e-4 -0.0434,5.29e-4 -0.0651,5.29e-4 -0.0394,1.48e-4 -0.0783,-0.0075 -0.11679,-0.01497 -0.0236,-0.004 -0.0468,-0.0078 -0.0703,-0.01188 -7.9e-4,-1.17e-4 -0.001,1.19e-4 -0.002,0 -0.002,-8.5e-5 -0.003,-7.94e-4 -0.005,-0.0011 -0.0283,-0.0019 -0.0563,-0.0067 -0.0837,-0.01394 -0.0149,-0.003 -0.0292,-0.0083 -0.0439,-0.01188 -1.7e-4,-3.4e-5 -2.7e-4,3.5e-5 -5.3e-4,0 -0.005,-0.0011 -0.0106,-0.0026 -0.016,-0.0036 -0.0218,-0.0034 -0.0435,-0.0075 -0.0651,-0.01188 -0.0202,-0.0038 -0.0403,-0.0091 -0.0605,-0.01291 -0.019,-0.0042 -0.0382,-0.0075 -0.0574,-0.01085 -0.0228,-0.0037 -0.0452,-0.0082 -0.0677,-0.01344 -0.0151,-0.0027 -0.0298,-0.008 -0.0444,-0.01291 -0.003,-0.0011 -0.011,-0.0046 -0.015,-0.0052 -0.015,-0.0049 -0.0297,-0.01098 -0.045,-0.01498 -0.024,-0.0086 -0.0523,-0.02027 -0.0553,-0.02119 -0.0175,-0.0071 -0.0314,-0.01225 -0.045,-0.01707 -0.0138,-0.0054 -0.0276,-0.01119 -0.0419,-0.01498 -0.0216,-0.0074 -0.0431,-0.01389 -0.0646,-0.0217 -0.0209,-0.0077 -0.0419,-0.01558 -0.0625,-0.02429 -0.0187,-0.0085 -0.0365,-0.01868 -0.0553,-0.02687 -0.0209,-0.0089 -0.0393,-0.02186 -0.0579,-0.03462 -0.30787,-0.211339 0.54393,-0.110284 0.22427,-0.30334 -0.002,-0.0011 -0.003,-0.0021 -0.005,-0.0031 z m 1.3131,0.03204 h 0.001 c -5.3e-4,2.65e-4 -0.002,7.94e-4 -0.003,0.0011 5.3e-4,-2.65e-4 10e-4,-7.94e-4 0.002,-0.0011 z" /></clipPath><clipPath
       clipPathUnits="userSpaceOnUse"
       id="clipPath443"><path
         id="path444"
         style="fill:#ff0000;fill-opacity:1;fill-rule:nonzero;stroke:none;stroke-width:0.264583"
         d="M 90.478716,67.123035 V 102.80871 H 129.34559 V 67.123035 Z m 26.701724,12.176516 c 0.0473,0.0016 0.10327,0.02979 0.15503,0.09405 0.003,0.004 7.9e-4,0.0016 0.002,0.0026 7.9e-4,0.0011 0.003,0.0035 0.002,0.0026 l 5.3e-4,5.29e-4 c 0.008,0.0074 0.0166,0.01524 0.0264,0.02223 0.011,0.0098 0.0244,0.01685 0.0357,0.02635 0.0166,0.01066 0.0333,0.02056 0.0506,0.02997 0.0127,0.0069 0.0261,0.01238 0.0393,0.0181 0.0188,0.007 0.0382,0.01333 0.0574,0.01913 0.0154,0.0045 0.0301,0.01027 0.0455,0.01447 0.006,0.0019 5.3e-4,8.2e-5 0.0129,0.0026 0.0137,0.0028 0.0273,0.0061 0.0408,0.0093 0.0159,0.0042 0.0316,0.0079 0.0475,0.01188 0.0204,0.0038 0.0407,0.0079 0.061,0.01188 0.0195,0.004 0.0387,0.0086 0.0584,0.01138 0.0227,0.0038 0.0457,0.0071 0.0682,0.01188 0.0208,0.0044 0.0415,0.0081 0.0625,0.01138 0.0237,0.004 0.0476,0.0071 0.0713,0.01138 0.0201,0.0039 0.0399,0.0082 0.0599,0.01241 0.022,0.0035 0.0438,0.0081 0.0656,0.01241 0.014,0.0024 0.0281,0.0049 0.0424,0.0057 0.0134,0.0011 0.0263,0.0021 0.0398,0.0016 0.0188,0 0.0375,5e-6 0.0563,0 0.02,-6e-6 0.0405,2.9e-5 0.0605,0 0.0236,-3.5e-5 0.0472,-2.65e-4 0.0708,-5.3e-4 0.027,-1.64e-4 0.0536,-2.64e-4 0.0806,-0.0011 0.0207,-5.29e-4 0.0414,-0.0013 0.062,-0.0026 h 5.3e-4 c 0.26352,-0.01707 0.29582,0.238302 0.0331,0.264584 -0.0289,0.0029 -0.0582,0.0038 -0.0873,0.0047 -0.029,7.94e-4 -0.0578,7.94e-4 -0.0868,0.0011 -0.0242,1.58e-4 -0.0483,5.29e-4 -0.0724,5.29e-4 -0.0202,2.9e-5 -0.0404,-3e-6 -0.0605,0 -0.0188,5e-6 -0.0375,0 -0.0563,0 -0.0208,5.29e-4 -0.0418,-7.94e-4 -0.0625,-0.0026 -0.0216,-0.0013 -0.0428,-0.0047 -0.0641,-0.0083 -0.021,-0.0036 -0.0415,-0.0087 -0.0625,-0.01188 -0.0234,-0.0043 -0.0469,-0.0099 -0.0703,-0.01447 -0.0211,-0.0035 -0.0425,-0.0063 -0.0636,-0.0098 -0.0247,-0.0038 -0.0489,-0.0083 -0.0734,-0.01344 -0.0186,-0.0041 -0.0376,-0.0068 -0.0563,-0.0098 -0.0233,-0.0034 -0.0461,-0.0082 -0.0692,-0.01291 -0.0189,-0.0036 -0.0379,-0.0079 -0.0568,-0.01138 -0.0224,-0.005 -0.0445,-0.01064 -0.0667,-0.01654 -0.0158,-0.0036 -0.0322,-0.0066 -0.0481,-0.01035 -0.0191,-0.004 -0.037,-0.01154 -0.0558,-0.01654 -0.0255,-0.0074 -0.0504,-0.01632 -0.0754,-0.02532 -0.025,-0.0097 -0.0492,-0.02066 -0.0729,-0.03307 -0.0238,-0.01288 -0.0475,-0.02666 -0.0703,-0.04134 -0.0191,-0.0136 -0.0378,-0.02748 -0.0563,-0.04186 -0.0153,-0.01132 -0.0299,-0.02384 -0.0439,-0.03669 -0.011,-0.0099 -0.0205,-0.02109 -0.0295,-0.03256 -0.1139,-0.141348 -0.0513,-0.265051 0.0527,-0.261482 z" /></clipPath></defs><g
     inkscape:label="Layer 1"
     inkscape:groupmode="layer"
     id="layer1"><path
       style="display:inline;opacity:1;fill:#000000;stroke-width:0.125741"
       d="m 96.453125,67.722656 c -0.589779,-0.0016 -1.345579,0.06962 -1.613281,0.212891 -0.08505,0.04552 -0.535904,0.222679 -0.951172,0.357422 -1.042302,0.338199 -1.804352,0.991961 -2.404297,2.003906 -0.333098,0.561844 -0.417991,0.954331 -0.404297,1.701172 0.0089,0.487439 0.112616,1.154297 0.263672,1.498047 0.2154,0.490185 0.995387,1.605468 1.578125,1.605468 l -0.148438,-0.01758 c 0.0036,0.0018 0.0075,0.0037 0.01172,0.0059 0.0047,0.0024 0.01031,0.005 0.01563,0.0078 0.05598,0.02973 0.13052,0.07327 0.207031,0.125 0.264603,0.178921 0.845753,0.420841 1.335938,0.583985 1.86504,0.620721 2.849082,1.259512 3.767578,2.373046 1.042287,1.263616 1.165286,2.241467 0.638672,3.109375 -0.286609,0.472358 -0.292941,0.489163 -1.736328,1.230469 -0.885589,0.454827 -1.793263,0.967806 -2.113281,1.246094 -1.08813,0.94625 -2.011719,3.071685 -2.011719,4.574219 0,0.723281 0.181717,1.673051 0.470703,2.515625 0.584043,1.702856 2.551111,3.718552 3.994141,3.732422 0.66263,0.0064 1.445073,-0.410004 2.126953,-0.96875 0.401935,-0.329357 0.452638,-0.351338 0.968751,-0.388672 0.54115,-0.03914 0.54516,-0.02007 0.73242,0.113281 0.34773,0.2476 0.50977,0.539406 0.50977,1.259766 0,0.592421 0.14043,0.435222 -1.748051,2.433593 -1.182343,1.251148 -1.504123,2.487883 -0.570312,3.597661 0.472891,0.562 1.667313,1.20159 2.566403,1.43164 1.31125,0.33552 2.99409,0.0695 3.95899,-0.68946 0.70576,-0.55515 0.94865,-1.21041 1.125,-2.527341 0.47607,-3.555332 0.69856,-4.381111 1.23437,-5.154297 0.32315,-0.466292 0.57849,-0.621616 1.28321,-0.705078 0.67667,-0.08014 1.09817,0.116528 1.27929,0.38086 0.0849,0.123975 0.40789,0.83939 0.64844,1.515625 0.58944,1.657066 1.70206,3.944995 2.23633,4.416015 0.7495,0.660782 1.65718,0.980026 2.72265,0.992186 2.19845,0.0251 4.16176,-1.3054 4.87891,-3.337889 0.39732,-1.126058 0.11088,-3.570612 -0.52734,-4.601562 -0.49555,-0.800494 -1.23449,-1.359306 -2.38867,-1.90625 -1.36683,-0.647712 -1.67181,-0.881697 -2.5254,-1.931641 -0.60137,-0.73968 -0.67641,-0.978437 -0.63085,-1.785156 0.0344,-0.608222 0.083,-0.770176 0.33593,-1.179688 0.22549,-0.365027 0.24959,-0.357805 0.27344,-0.367187 0.11402,-0.04486 0.27799,-0.07156 0.66016,-0.138672 0.93752,-0.164642 1.98037,-0.05974 3.92578,0.466797 1.61191,0.436275 2.16232,0.494725 3.55664,0.386719 2.18599,-0.169329 3.46081,-0.914859 4.33789,-2.646485 0.49973,-0.986617 0.53931,-1.647064 0.20312,-2.753906 -0.38642,-1.2722 -1.02593,-2.135176 -2.07421,-2.673828 -1.36552,-0.701669 -2.07974,-0.499975 -4.72852,0.826172 -2.28127,1.142149 -3.16277,1.351663 -3.55859,1.201172 -0.22266,-0.08465 -0.57567,-0.167969 -0.79688,-0.167969 -0.19153,0 -0.60531,-0.295332 -0.8125,-0.84375 -0.26777,-0.70872 -0.24718,-0.907059 0.0176,-1.427735 0.1745,-0.343172 0.26158,-0.434391 0.91992,-0.804687 2.12038,-1.192658 2.8849,-1.86549 3.32617,-3.160156 0.44416,-1.303103 0.0266,-3.102282 -0.93554,-4.13086 -0.49557,-0.529791 -0.9158,-0.776616 -1.69336,-1.019531 -2.28467,-0.713747 -4.83442,-0.08876 -6.66016,1.601563 -0.9919,0.918326 -2.83027,3.281877 -3.32422,4.304687 -0.0512,0.106107 -0.19325,0.264737 -0.68359,0.509766 -0.76817,0.383854 -1.53842,0.432269 -2.86133,0.03906 -1.34786,-0.400625 -1.37477,-0.410504 -2.07031,-0.943359 -0.55782,-0.427342 -1.58313,-1.900519 -1.58399,-1.94336 -0.009,-0.471852 -0.85256,-2.07944 -1.234373,-2.533203 -0.230745,-0.274223 -0.762539,-0.710717 -1.191406,-1.001953 -0.805524,-0.547006 -1.040398,-0.606382 -2.128906,-0.609375 z"
       id="path405"
       clip-path="url(#clipPath443)"
       inkscape:path-effect="#path-effect411"
       inkscape:original-d="m 102.08779,101.48356 c -0.83224,-0.21294 -1.87626,-0.78453 -2.254916,-1.23454 -0.679124,-0.807095 -0.507836,-1.684914 0.546466,-2.800569 1.89965,-2.010188 1.91088,-2.026896 1.91088,-2.844805 0,-0.868363 -0.21338,-1.358723 -0.7609,-1.748589 -0.32104,-0.228603 -0.51349,-0.26679 -1.1225,-0.222737 -0.621259,0.04494 -0.823562,0.125709 -1.306945,0.521806 -0.63188,0.517776 -1.301371,0.838663 -1.740948,0.834432 -1.07892,-0.01037 -2.897542,-1.775378 -3.430529,-3.329374 -0.274336,-0.799859 -0.440042,-1.673611 -0.440042,-2.320295 0,-1.343504 0.854541,-3.292583 1.806538,-4.120451 0.220898,-0.192093 1.117754,-0.717053 1.993017,-1.166577 1.464124,-0.751957 1.622186,-0.86808 1.976567,-1.452132 0.69207,-1.140595 0.462888,-2.403972 -0.689539,-3.801115 -1.013558,-1.228783 -2.091319,-1.911654 -4.041555,-2.56073 -0.47103,-0.156768 -1.00661,-0.386591 -1.190178,-0.510717 -0.183571,-0.124127 -0.373057,-0.225687 -0.421082,-0.225687 -0.17105,0 -0.834205,-0.803508 -1.028983,-1.246764 -0.108939,-0.247907 -0.204809,-0.818529 -0.213048,-1.268053 -0.01241,-0.676807 0.04269,-0.914591 0.320482,-1.383149 0.527992,-0.89058 1.203214,-1.457002 2.073482,-1.739381 0.425873,-0.138184 0.898112,-0.3175 1.049422,-0.398479 0.15131,-0.08098 0.74848,-0.145912 1.327047,-0.144301 1.018333,0.0028 1.07565,0.01905 1.7943,0.507063 0.408303,0.277271 0.88953,0.679024 1.069399,0.892784 0.34848,0.414147 1.087625,1.872951 1.093255,2.157698 0.007,0.347943 1.2119,1.942706 1.81987,2.40847 0.72556,0.555853 0.90099,0.636583 2.26333,1.041512 1.43037,0.425148 2.33769,0.404127 3.29938,-0.07643 0.54038,-0.270034 0.81873,-0.498488 0.95752,-0.785882 0.44139,-0.913981 2.25723,-3.261526 3.1928,-4.127698 1.67704,-1.552644 4.00209,-2.114904 6.07178,-1.468318 0.72168,0.225456 0.9966,0.389948 1.43491,0.85853 0.82729,0.884447 1.17908,2.427671 0.80415,3.527663 -0.37738,1.107207 -0.97365,1.659856 -3.05236,2.829076 -0.7027,0.395248 -0.92766,0.600165 -1.15956,1.056222 -0.35592,0.699953 -0.36423,1.06421 -0.0436,1.912832 0.26076,0.690231 0.86394,1.230691 1.37352,1.230691 0.13478,0 0.39713,0.05782 0.58299,0.128481 0.66591,0.253177 1.74052,-0.07239 4.04156,-1.224436 2.60062,-1.302036 3.08292,-1.397741 4.18639,-0.830725 0.87158,0.447854 1.42601,1.171831 1.77349,2.315813 0.29605,0.974701 0.2608,1.467366 -0.16522,2.308447 -0.77392,1.52795 -1.82651,2.161926 -3.84964,2.318639 -1.36139,0.105455 -1.76323,0.06122 -3.35323,-0.369123 -1.98154,-0.536316 -3.11444,-0.665678 -4.18429,-0.477798 -0.95612,0.167905 -0.96291,0.171874 -1.34008,0.782458 -0.29997,0.485611 -0.38909,0.790715 -0.42701,1.461847 -0.0536,0.949203 0.0929,1.36966 0.76601,2.197576 0.88767,1.091866 1.32581,1.42762 2.73342,2.094658 1.09462,0.518716 1.7238,1.013415 2.13623,1.679639 0.53731,0.867947 0.80061,3.152423 0.471,4.086579 -0.62866,1.781705 -2.35591,2.960791 -4.30473,2.938563 -0.93654,-0.01069 -1.70713,-0.288718 -2.33544,-0.842655 -0.40844,-0.360085 -1.48263,-2.526739 -2.06654,-4.168249 -0.24554,-0.690266 -0.56962,-1.43479 -0.72017,-1.654503 -0.34581,-0.504679 -1.01233,-0.734631 -1.84389,-0.636145 -0.8409,0.09959 -1.27921,0.346239 -1.70362,0.958657 -0.62564,0.902811 -0.85848,1.846397 -1.33649,5.416187 -0.16825,1.256464 -0.35931,1.708554 -0.90273,2.136004 -0.79825,0.6279 -2.27479,0.87608 -3.4394,0.57808 z" /><path
       style="display:inline;opacity:1;fill:#ffffff;stroke-width:0.125741"
       d="m 102.08779,101.48356 c -0.83224,-0.21294 -1.87626,-0.78453 -2.254916,-1.23454 -0.679124,-0.807095 -0.507836,-1.684914 0.546466,-2.800569 1.89965,-2.010188 1.91088,-2.026896 1.91088,-2.844805 0,-0.868363 -0.21338,-1.358723 -0.7609,-1.748589 -0.32104,-0.228603 -0.51349,-0.26679 -1.1225,-0.222737 -0.621259,0.04494 -0.823562,0.125709 -1.306945,0.521806 -0.63188,0.517776 -1.301371,0.838663 -1.740948,0.834432 -1.07892,-0.01037 -2.897542,-1.775378 -3.430529,-3.329374 -0.274336,-0.799859 -0.440042,-1.673611 -0.440042,-2.320295 0,-1.343504 0.854541,-3.292583 1.806538,-4.120451 0.220898,-0.192093 1.117754,-0.717053 1.993017,-1.166577 1.464124,-0.751957 1.622186,-0.86808 1.976567,-1.452132 0.69207,-1.140595 0.462888,-2.403972 -0.689539,-3.801115 -1.013558,-1.228783 -2.091319,-1.911654 -4.041555,-2.56073 -0.47103,-0.156768 -1.00661,-0.386591 -1.190178,-0.510717 -0.183571,-0.124127 -0.373057,-0.225687 -0.421082,-0.225687 -0.17105,0 -0.834205,-0.803508 -1.028983,-1.246764 -0.108939,-0.247907 -0.204809,-0.818529 -0.213048,-1.268053 -0.01241,-0.676807 0.04269,-0.914591 0.320482,-1.383149 0.527992,-0.89058 1.203214,-1.457002 2.073482,-1.739381 0.425873,-0.138184 0.898112,-0.3175 1.049422,-0.398479 0.15131,-0.08098 0.74848,-0.145912 1.327047,-0.144301 1.018333,0.0028 1.07565,0.01905 1.7943,0.507063 0.408303,0.277271 0.88953,0.679024 1.069399,0.892784 0.34848,0.414147 1.087625,1.872951 1.093255,2.157698 0.007,0.347943 1.2119,1.942706 1.81987,2.40847 0.72556,0.555853 0.90099,0.636583 2.26333,1.041512 1.43037,0.425148 2.33769,0.404127 3.29938,-0.07643 0.54038,-0.270034 0.81873,-0.498488 0.95752,-0.785882 0.44139,-0.913981 2.25723,-3.261526 3.1928,-4.127698 1.67704,-1.552644 4.00209,-2.114904 6.07178,-1.468318 0.72168,0.225456 0.9966,0.389948 1.43491,0.85853 0.82729,0.884447 1.17908,2.427671 0.80415,3.527663 -0.37738,1.107207 -0.97365,1.659856 -3.05236,2.829076 -0.7027,0.395248 -0.92766,0.600165 -1.15956,1.056222 -0.35592,0.699953 -0.36423,1.06421 -0.0436,1.912832 0.26076,0.690231 0.86394,1.230691 1.37352,1.230691 0.13478,0 0.39713,0.05782 0.58299,0.128481 0.66591,0.253177 1.74052,-0.07239 4.04156,-1.224436 2.60062,-1.302036 3.08292,-1.397741 4.18639,-0.830725 0.87158,0.447854 1.42601,1.171831 1.77349,2.315813 0.29605,0.974701 0.2608,1.467366 -0.16522,2.308447 -0.77392,1.52795 -1.82651,2.161926 -3.84964,2.318639 -1.36139,0.105455 -1.76323,0.06122 -3.35323,-0.369123 -1.98154,-0.536316 -3.11444,-0.665678 -4.18429,-0.477798 -0.95612,0.167905 -0.96291,0.171874 -1.34008,0.782458 -0.29997,0.485611 -0.38909,0.790715 -0.42701,1.461847 -0.0536,0.949203 0.0929,1.36966 0.76601,2.197576 0.88767,1.091866 1.32581,1.42762 2.73342,2.094658 1.09462,0.518716 1.7238,1.013415 2.13623,1.679639 0.53731,0.867947 0.80061,3.152423 0.471,4.086579 -0.62866,1.781705 -2.35591,2.960791 -4.30473,2.938563 -0.93654,-0.01069 -1.70713,-0.288718 -2.33544,-0.842655 -0.40844,-0.360085 -1.48263,-2.526739 -2.06654,-4.168249 -0.24554,-0.690266 -0.56962,-1.43479 -0.72017,-1.654503 -0.34581,-0.504679 -1.01233,-0.734631 -1.84389,-0.636145 -0.8409,0.09959 -1.27921,0.346239 -1.70362,0.958657 -0.62564,0.902811 -0.85848,1.846397 -1.33649,5.416187 -0.16825,1.256464 -0.35931,1.708554 -0.90273,2.136004 -0.79825,0.6279 -2.27479,0.87608 -3.4394,0.57808 z"
       id="path412"
       clip-path="url(#clipPath419)" /></g></svg>
