<?xml version="1.0" encoding="UTF-8" standalone="no"?>
<!-- Created with Inkscape (http://www.inkscape.org/) -->

<svg
   width="210mm"
   height="297mm"
   viewBox="0 0 210 297"
   version="1.1"
   id="svg1"
   inkscape:version="1.3.2 (091e20e, 2023-11-25, custom)"
   sodipodi:docname="ZoomIcon.svg"
   xml:space="preserve"
   xmlns:inkscape="http://www.inkscape.org/namespaces/inkscape"
   xmlns:sodipodi="http://sodipodi.sourceforge.net/DTD/sodipodi-0.dtd"
   xmlns="http://www.w3.org/2000/svg"
   xmlns:svg="http://www.w3.org/2000/svg"><sodipodi:namedview
     id="namedview1"
     pagecolor="#ffffff"
     bordercolor="#000000"
     borderopacity="0.25"
     inkscape:showpageshadow="2"
     inkscape:pageopacity="0.0"
     inkscape:pagecheckerboard="0"
     inkscape:deskcolor="#d1d1d1"
     inkscape:document-units="mm"
     inkscape:zoom="8.4167792"
     inkscape:cx="-335.16384"
     inkscape:cy="404.25202"
     inkscape:window-width="3440"
     inkscape:window-height="1377"
     inkscape:window-x="-8"
     inkscape:window-y="735"
     inkscape:window-maximized="1"
     inkscape:current-layer="layer1" /><defs
     id="defs1"><inkscape:path-effect
       effect="offset"
       id="path-effect2"
       is_visible="true"
       lpeversion="1.2"
       linejoin_type="miter"
       unit="mm"
       offset="2.2634467"
       miter_limit="4"
       attempt_force_join="false"
       update_on_knot_move="true" /><inkscape:path-effect
       effect="offset"
       id="path-effect1180"
       is_visible="true"
       lpeversion="1.2"
       linejoin_type="miter"
       unit="mm"
       offset="2.2151438"
       miter_limit="4"
       attempt_force_join="false"
       update_on_knot_move="true" /><inkscape:path-effect
       effect="offset"
       id="path-effect1178"
       is_visible="true"
       lpeversion="1.2"
       linejoin_type="miter"
       unit="mm"
       offset="2.3000387"
       miter_limit="4"
       attempt_force_join="false"
       update_on_knot_move="true" /><linearGradient
       id="swatch10"
       inkscape:swatch="solid"><stop
         style="stop-color:#0000ff;stop-opacity:1;"
         offset="0"
         id="stop10" /></linearGradient><linearGradient
       id="swatch9"
       inkscape:swatch="solid"><stop
         style="stop-color:#0048ff;stop-opacity:1;"
         offset="0"
         id="stop9" /></linearGradient><linearGradient
       id="swatch8"
       inkscape:swatch="solid"><stop
         style="stop-color:#8038b3;stop-opacity:1;"
         offset="0"
         id="stop8" /></linearGradient><clipPath
       clipPathUnits="userSpaceOnUse"
       id="clipPath37"><path
         id="path38"
         style="fill:#ff0000;fill-opacity:1;fill-rule:nonzero;stroke:none;stroke-width:0.264583"
         d="m -263.5157,47.49891 v 11.047905 c 0.62502,-0.824349 1.27284,-1.631582 1.94459,-2.411741 0.40646,-0.438806 0.80139,-0.888542 1.21956,-1.316199 1.88819,-1.930992 4.02741,-3.594396 6.22804,-5.151106 0.64026,-0.434192 1.08499,-0.739984 1.54099,-1.035596 -0.31469,-0.378055 -0.63113,-0.754657 -0.94516,-1.133263 z m 12.29899,0 c 0.0599,0.0722 0.12044,0.143833 0.18035,0.216006 0.13747,-0.07575 0.27939,-0.142616 0.41807,-0.216006 z m 62.19466,0 c 1.00014,0.350348 1.97196,0.772266 2.87476,1.342036 0.5717,0.389741 1.10522,0.762542 1.60352,1.178224 0.29192,-0.222769 0.59324,-0.43007 0.93896,-0.677479 v 5.29e-4 c 5.21615,-3.732922 6.83773,6.964653 5.80274,8.96793 0.10972,0.169013 0.22336,0.335772 0.3235,0.510561 0.26156,0.456581 0.49403,0.927278 0.70125,1.408184 V 47.498923 Z m -28.09338,19.806542 c -1.85391,0.0186 -3.71512,0.0642 -5.55625,0.301791 -1.12483,0.145154 -1.26221,0.196173 -2.36265,0.425813 -2.3601,0.583528 -4.5817,1.58927 -6.75462,2.658753 -0.90477,0.476298 -1.80438,0.978273 -2.63343,1.580266 -0.73567,0.534194 -1.40518,1.166852 -2.07895,1.774569 -0.6876,0.626705 -1.31695,1.308862 -1.92029,2.014347 -1.27065,2.470488 -2.37787,5.027628 -3.24787,7.66568 -0.20785,0.630272 -0.38548,1.269751 -0.57826,1.904796 -0.92417,3.198495 -1.32792,6.511137 -1.67173,9.812835 -0.21283,2.068595 -0.2893,4.146762 -0.3421,6.224428 -0.0337,1.50709 -0.0415,3.01403 -0.0977,4.52014 0.57489,0.41152 1.12537,0.85922 1.65157,1.33583 1.05311,0.93628 1.84817,2.08317 2.5151,3.3135 0.42016,0.7497 0.64669,1.60771 1.13739,2.3182 0.027,-0.0777 -0.19193,-0.32235 -0.17053,-0.34985 0.0206,-0.0266 0.25752,0.052 0.34262,0.0755 0.12603,0.0345 0.25267,0.0682 0.37878,0.10232 0.80761,0.22279 1.64008,0.30655 2.47324,0.35605 1.07665,0.0335 2.14843,-0.10942 3.21996,-0.19482 0.99329,-0.10012 1.98772,-0.11514 2.98173,-0.0884 3.77812,-1.01623 7.50213,-2.21947 11.20655,-3.47576 2.75228,-0.95164 5.50688,-1.95827 8.06101,-3.37447 1.12959,-0.62636 1.74981,-1.07367 2.81326,-1.78645 1.83884,-1.32574 3.62699,-2.72017 5.32474,-4.22248 0.96378,-0.863663 1.81034,-1.85485 2.4753,-2.967262 0.15211,-0.254455 0.28678,-0.519173 0.42995,-0.778764 1.08436,-2.283158 1.67921,-4.746736 2.11563,-7.22385 0.10635,-0.608155 0.14802,-1.215821 0.16072,-1.823143 -0.10022,-0.930524 -0.19624,-1.861886 -0.26304,-2.796212 -0.0188,-0.345623 -0.029,-0.554249 -0.046,-0.851112 -0.04,-0.242506 -0.0742,-0.485706 -0.11834,-0.727604 -0.47334,-2.105178 -1.03551,-4.191521 -1.72961,-6.234761 -0.57295,-1.581282 -1.06393,-3.195949 -1.76475,-4.72736 -0.44118,-0.818351 -0.92781,-1.601703 -1.51825,-2.319756 -0.33466,-0.326919 -0.64847,-0.6941 -1.04283,-0.953947 -0.11047,-0.07279 -0.24689,-0.09419 -0.37156,-0.138491 -1.37584,-0.545211 -2.85193,-0.749615 -4.30774,-0.958599 -2.88952,-0.358547 -5.80392,-0.385206 -8.7111,-0.391707 z m 40.33811,34.200498 c -0.0894,0.29945 -0.18726,0.59629 -0.28267,0.894 0.0942,-0.0474 0.18794,-0.10076 0.28267,-0.14004 z M -263.5157,119.34 v 14.8978 h 16.52509 c -2.45156,-0.71837 -4.88973,-1.49907 -7.16339,-2.68511 -1.75479,-0.93584 -3.47844,-1.94887 -4.90822,-3.35225 -0.23823,-0.24565 -0.49131,-0.47767 -0.71469,-0.7369 -0.87928,-1.02038 -1.46882,-2.22657 -2.00969,-3.44889 -0.65435,-1.52792 -1.23138,-3.08837 -1.7291,-4.67465 z" /></clipPath></defs><g
     inkscape:label="Layer 1"
     inkscape:groupmode="layer"
     id="layer1"
     style="display:inline"><path
       style="fill:#000000;fill-opacity:1;stroke-width:0.264583"
       id="rect1"
       width="92.042328"
       height="92.042328"
       x="24.142252"
       y="63.624889"
       ry="19.3641"
       sodipodi:type="rect"
       d="m 43.505859,61.361328 c -11.980333,0 -21.626953,9.64662 -21.626953,21.626953 v 53.314449 c 0,11.98034 9.646337,21.62891 21.626953,21.62891 h 53.314453 c 11.980618,0 21.628908,-9.64829 21.628908,-21.62891 V 82.988281 c 0,-11.980616 -9.64857,-21.626953 -21.628908,-21.626953 z"
       inkscape:export-filename="RoundedUI.png"
       inkscape:export-xdpi="96"
       inkscape:export-ydpi="96"
       transform="translate(-154.70729,-10.491644)"
       inkscape:path-effect="#path-effect2" /><rect
       style="fill:#ffffff;fill-opacity:1;stroke-width:0.264583"
       id="rect2"
       width="92.042328"
       height="92.042328"
       x="-130.56503"
       y="53.133247"
       ry="19.3641"
       inkscape:export-filename="DragButtonImage.png"
       inkscape:export-xdpi="96"
       inkscape:export-ydpi="96" /><path
       d="M -76.775468,77.35347 A 12.581081,13.203467 0 0 0 -89.356612,90.557315 12.581081,13.203467 0 0 0 -76.775468,103.76064 12.581081,13.203467 0 0 0 -64.194841,90.557315 12.581081,13.203467 0 0 0 -76.775468,77.35347 Z m 0,2.667537 a 10.039449,10.5361 0 0 1 10.03918,10.536308 10.039449,10.5361 0 0 1 -10.03918,10.535785 10.039449,10.5361 0 0 1 -10.039698,-10.535785 10.039449,10.5361 0 0 1 10.039698,-10.536308 z"
       style="opacity:1;fill:#000000;stroke-width:0.264583"
       id="path48" /><rect
       style="opacity:1;fill:#000000;fill-opacity:1;stroke-width:0.264583"
       id="rect48"
       width="3.023016"
       height="11.202942"
       x="-78.153854"
       y="84.911186"
       ry="1.511508" /><rect
       style="opacity:1;fill:#000000;fill-opacity:1;stroke-width:0.264583"
       id="rect49"
       width="3.023016"
       height="11.202942"
       x="-92.024162"
       y="-82.24382"
       ry="1.511508"
       transform="rotate(-90)" /><rect
       style="opacity:1;fill:#000000;fill-opacity:1;stroke-width:0.272499"
       id="rect50"
       width="4.8553686"
       height="25.721111"
       x="14.866093"
       y="127.70767"
       ry="2.4256563"
       transform="matrix(0.65523881,0.7554218,-0.75139687,0.65985055,0,0)" /></g></svg>
